<?xml version="1.0" encoding="UTF-8"?>
<svg id="Livello_2" xmlns="http://www.w3.org/2000/svg" version="1.1" xmlns:xlink="http://www.w3.org/1999/xlink" viewBox="0 0 347.6 336.1">
  <!-- Generator: Adobe Illustrator 29.4.0, SVG Export Plug-In . SVG Version: 2.1.0 Build 152)  -->
  <defs>
    <style>
      .st0 {
        fill: url(#Sfumatura_senza_nome_8);
      }

      .st1 {
        fill: #fff;
      }

      .st2 {
        fill: none;
      }

      .st3 {
        clip-path: url(#clippath-1);
      }

      .st4 {
        fill: url(#Sfumatura_senza_nome_10);
      }

      .st5 {
        fill: url(#Sfumatura_senza_nome_9);
      }

      .st6 {
        fill: url(#Sfumatura_senza_nome_11);
      }

      .st7 {
        fill: #fde3a7;
      }

      .st7, .st8 {
        fill-rule: evenodd;
      }

      .st9, .st8 {
        fill: #91784f;
        isolation: isolate;
        opacity: .6;
      }

      .st10 {
        fill: url(#Sfumatura_senza_nome_7);
      }

      .st11 {
        clip-path: url(#clippath-2);
      }

      .st12 {
        clip-path: url(#clippath);
      }

      .st13 {
        fill: url(#Sfumatura_senza_nome_12);
      }
    </style>
    <linearGradient id="Sfumatura_senza_nome_7" data-name="Sfumatura senza nome 7" x1="69.8" y1="24.2" x2="115.2" y2="24.2" gradientTransform="translate(0 338) scale(1 -1)" gradientUnits="userSpaceOnUse">
      <stop offset="0" stop-color="#91784f"/>
      <stop offset=".5" stop-color="#c9a75f"/>
      <stop offset=".8" stop-color="#f6d6a3"/>
    </linearGradient>
    <linearGradient id="Sfumatura_senza_nome_8" data-name="Sfumatura senza nome 8" x1="123.4" y1="24.8" x2="130.9" y2="24.8" gradientTransform="translate(0 338) scale(1 -1)" gradientUnits="userSpaceOnUse">
      <stop offset="0" stop-color="#91784f"/>
      <stop offset=".5" stop-color="#c9a75f"/>
      <stop offset=".8" stop-color="#f6d6a3"/>
    </linearGradient>
    <linearGradient id="Sfumatura_senza_nome_9" data-name="Sfumatura senza nome 9" x1="143.5" y1="24.9" x2="186.5" y2="24.9" gradientTransform="translate(0 338) scale(1 -1)" gradientUnits="userSpaceOnUse">
      <stop offset="0" stop-color="#91784f"/>
      <stop offset=".5" stop-color="#c9a75f"/>
      <stop offset=".8" stop-color="#f6d6a3"/>
    </linearGradient>
    <clipPath id="clippath">
      <path class="st2" d="M256.8,148.4c10.3,20.2,20.6,40.4,30.9,60.6,10.3,20.1,20.5,40.1,30.8,60.2-89.8,0-75.6.5-123.8-93.8,20.7-9,41.4-18,62.1-27h0Z"/>
    </clipPath>
    <linearGradient id="Sfumatura_senza_nome_10" data-name="Sfumatura senza nome 10" x1="306.3" y1="64.3" x2="231.1" y2="162.1" gradientTransform="translate(0 338) scale(1 -1)" gradientUnits="userSpaceOnUse">
      <stop offset="0" stop-color="#000"/>
      <stop offset=".5" stop-color="#947b50"/>
      <stop offset=".7" stop-color="#c9a75f"/>
      <stop offset=".9" stop-color="#f6d6a3"/>
    </linearGradient>
    <clipPath id="clippath-1">
      <path class="st2" d="M62.3,233.1c-16.3,7.1-32.6,14.2-48.9,21.3,13.9-2.5,27.9-5,41.8-7.4-3.8,7.4-7.6,14.8-11.4,22.2,75.4,0,71.1,9.2,100.3-47.7,5.2-10.3,10.5-20.6,15.8-30.9-32.5,14.2-65,28.3-97.5,42.5h0Z"/>
    </clipPath>
    <linearGradient id="Sfumatura_senza_nome_11" data-name="Sfumatura senza nome 11" x1="128.2" y1="34.3" x2="77.6" y2="118.5" gradientTransform="translate(0 338) scale(1 -1)" gradientUnits="userSpaceOnUse">
      <stop offset="0" stop-color="#000"/>
      <stop offset=".5" stop-color="#947b50"/>
      <stop offset=".7" stop-color="#c9a75f"/>
      <stop offset=".9" stop-color="#f6d6a3"/>
    </linearGradient>
    <clipPath id="clippath-2">
      <path class="st2" d="M181.2,148.9c-5.1,10-10.2,20-15.3,30.1-33.5,16.1-67,32.2-100.5,48.3,3.1-6,6.2-12.1,9.3-18.1L181.2,0c21.4,42,42.8,84,64.2,126,29.5-5.9,50.5-10.1,50.5-10.1-14.9,7.2-29.8,14.4-44.7,21.6-20.3,9.8-40.6,19.6-60.9,29.4-3.1-6-6.1-12-9.2-18h0Z"/>
    </clipPath>
    <linearGradient id="Sfumatura_senza_nome_12" data-name="Sfumatura senza nome 12" x1="209.8" y1="299.1" x2="144.9" y2="133" gradientTransform="translate(0 338) scale(1 -1)" gradientUnits="userSpaceOnUse">
      <stop offset="0" stop-color="#91784f"/>
      <stop offset=".5" stop-color="#c9a75f"/>
      <stop offset=".8" stop-color="#f6d6a3"/>
    </linearGradient>
  </defs>
  <g id="Livello_1-2">
    <polygon class="st1" points="41.2 326.3 22.6 289.9 4.1 326.3 0 334.2 8.9 334.2 12.9 326.3 22.6 307.3 32.3 326.3 36.4 334.2 45.2 334.2 41.2 326.3"/>
    <path class="st1" d="M61.7,291.6v43h-7.5v-43h7.5Z"/>
    <path class="st10" d="M69.8,291.5h8.2l14.5,29,14.5-29h8.2l-22.7,44.5-22.8-44.5h0Z"/>
    <path class="st0" d="M130.9,291.6v43h-7.5v-43h7.5Z"/>
    <path class="st5" d="M143.6,334.6v-43h29.2c3.8,0,7,1.4,9.7,4.1s4.1,5.9,4.1,9.6-1.4,7-4.1,9.7-5.9,4-9.7,4h-21.7v15.6h-7.5,0ZM151.1,311.8h21.3c1.9,0,3.5-.6,4.7-1.9,1.3-1.3,2-2.8,2-4.6s-.7-3.4-1.9-4.6-2.9-1.9-4.8-1.9h-21.3v13h0Z"/>
    <path class="st1" d="M196.4,334.6v-43h29.2c3.8,0,7,1.4,9.7,4.1s4.1,5.9,4.1,9.6-1.4,7-4.1,9.7-5.9,4-9.7,4h-21.7v15.6h-7.5,0ZM203.9,311.8h21.3c1.9,0,3.5-.6,4.7-1.9,1.3-1.3,2-2.8,2-4.6s-.7-3.4-1.9-4.6-2.9-1.9-4.8-1.9h-21.3v13h0Z"/>
    <path class="st1" d="M282.7,334.6l-14.6-15.6h-11.4v15.6h-7.5v-43h28c3.8,0,7.1,1.4,9.8,4.1,2.7,2.7,4.1,5.9,4.1,9.6s-1.3,6.9-3.8,9.4c-2.5,2.6-5.7,4-9.5,4.1l14.8,15.7h-9.7ZM256.7,311.8h20.2c1.9,0,3.5-.7,4.7-1.9s1.9-2.8,1.9-4.6-.7-3.4-1.9-4.6-2.9-1.9-4.7-1.9h-20.2v13h0Z"/>
    <path class="st1" d="M323.9,334.7c-6.5,0-12.1-2.1-16.8-6.2-4.7-4.2-7-9.3-7-15.3s2.3-11.2,7-15.3c4.7-4.2,10.3-6.2,16.8-6.2s12.1,2.1,16.7,6.2,7,9.3,7,15.3-2.4,11.1-7,15.3c-4.7,4.2-10.2,6.2-16.7,6.2h0ZM323.9,327.4c4.4,0,8.3-1.4,11.5-4.2s4.8-6.1,4.8-10-1.6-7.2-4.8-10-7-4.2-11.5-4.2-8.3,1.4-11.5,4.2c-3.1,2.8-4.7,6.1-4.7,10s1.6,7.2,4.7,10c3.2,2.8,7,4.2,11.5,4.2Z"/>
    <g class="st12">
      <rect class="st4" x="194.8" y="148.4" width="123.8" height="121.4"/>
    </g>
    <path class="st8" d="M276.6,268.6c-44.7-2.8-43.1-17.2-81.9-93.1l29.1-12.7,52.8,105.8h0Z"/>
    <g class="st3">
      <rect class="st6" x="13.4" y="190.6" width="146.5" height="87.8"/>
    </g>
    <g class="st11">
      <rect class="st13" x="65.3" width="230.5" height="227.2"/>
    </g>
    <path class="st7" d="M164,33.7L181.2,0c21.4,42,42.8,84,64.2,126l-81.3-92.3h0Z"/>
    <path class="st8" d="M181.2,148.9c-5.1,10-10.2,20-15.3,30.1l-47.4,22.8,62.7-123.1,37.9,74.4-28.7,13.9c-3.1-6-6.1-12-9.2-18"/>
    <polygon class="st7" points="118.7 201.2 181.2 78.6 218.9 152.7 220.8 152.2 181.2 72.5 115.6 203.1 118.7 201.2"/>
    <path class="st7" d="M94.2,170.7L197.7,32.4c-5.5-10.8-11-21.6-16.5-32.4l-87,170.7Z"/>
    <path class="st9" d="M111.4,211.8l-30.6,58c38.1.5,40-2.9,63.3-48.2,5.2-10.3,10.5-20.6,15.8-30.9l-48.5,21.1h0Z"/>
  </g>
</svg>