<?xml version="1.0" encoding="UTF-8"?>
<svg id="Livello_2" data-name="Livello 2" xmlns="http://www.w3.org/2000/svg" xmlns:xlink="http://www.w3.org/1999/xlink" viewBox="0 0 347.56 336.08">
  <defs>
    <style>
      .cls-1 {
        mask: url(#mask-5);
      }

      .cls-2 {
        fill: url(#linear-gradient-2);
      }

      .cls-3 {
        mask: url(#mask-1);
      }

      .cls-4 {
        fill: url(#Degradado_sin_nombre_4-4);
      }

      .cls-5 {
        fill: url(#Sfumatura_senza_nome_21-2);
      }

      .cls-6 {
        fill: url(#Degradado_sin_nombre_4-2);
      }

      .cls-7 {
        fill: url(#Sfumatura_senza_nome_21);
      }

      .cls-8 {
        mask: url(#mask);
      }

      .cls-9 {
        fill: url(#linear-gradient-4);
      }

      .cls-10, .cls-11 {
        fill: #91784f;
        opacity: .61;
      }

      .cls-10, .cls-12 {
        fill-rule: evenodd;
      }

      .cls-13 {
        fill: url(#Degradado_sin_nombre_4);
      }

      .cls-14 {
        mask: url(#mask-2);
      }

      .cls-15 {
        fill: url(#linear-gradient-3);
      }

      .cls-16 {
        clip-path: url(#clippath-1);
      }

      .cls-17 {
        fill: url(#linear-gradient-5);
      }

      .cls-18 {
        fill: url(#Degradado_sin_nombre_4-3);
      }

      .cls-19 {
        clip-rule: evenodd;
        fill: none;
      }

      .cls-12 {
        fill: #fde3a7;
      }

      .cls-20 {
        fill: url(#linear-gradient-6);
      }

      .cls-21 {
        clip-path: url(#clippath-2);
      }

      .cls-22 {
        mask: url(#mask-4);
      }

      .cls-23 {
        fill: url(#linear-gradient);
      }

      .cls-24 {
        clip-path: url(#clippath);
      }

      .cls-25 {
        mask: url(#mask-3);
      }
    </style>
    <linearGradient id="Degradado_sin_nombre_4" data-name="Degradado sin nombre 4" x1="69.77" y1="313.81" x2="115.25" y2="313.81" gradientUnits="userSpaceOnUse">
      <stop offset=".04" stop-color="#91784f"/>
      <stop offset=".46" stop-color="#c9a75f"/>
      <stop offset=".82" stop-color="#f6d6a3"/>
    </linearGradient>
    <linearGradient id="Degradado_sin_nombre_4-2" data-name="Degradado sin nombre 4" x1="123.42" y1="313.15" x2="130.94" y2="313.15" xlink:href="#Degradado_sin_nombre_4"/>
    <linearGradient id="Degradado_sin_nombre_4-3" data-name="Degradado sin nombre 4" x1="143.55" y1="313.15" x2="186.5" y2="313.15" xlink:href="#Degradado_sin_nombre_4"/>
    <clipPath id="clippath">
      <path class="cls-19" d="M256.82,148.43c10.3,20.21,20.6,40.42,30.9,60.63,10.27,20.06,20.54,40.12,30.82,60.19-89.77,0-75.58.54-123.78-93.79,20.69-9.01,41.38-18.02,62.07-27.03"/>
    </clipPath>
    <linearGradient id="Sfumatura_senza_nome_21" data-name="Sfumatura senza nome 21" x1="306.29" y1="273.72" x2="231.12" y2="175.9" gradientUnits="userSpaceOnUse">
      <stop offset=".04" stop-color="#000"/>
      <stop offset=".51" stop-color="#947b50"/>
      <stop offset=".74" stop-color="#c9a75f"/>
      <stop offset=".92" stop-color="#f6d6a3"/>
    </linearGradient>
    <linearGradient id="linear-gradient" x1="-1347.39" y1="235.11" x2="-1294.75" y2="417.63" gradientTransform="translate(1561.48 -94.3)" gradientUnits="userSpaceOnUse">
      <stop offset="0" stop-color="#fff"/>
      <stop offset="1" stop-color="#000"/>
    </linearGradient>
    <mask id="mask" x="194.75" y="162.8" width="81.89" height="105.8" maskUnits="userSpaceOnUse">
      <rect class="cls-23" x="194.75" y="162.8" width="81.89" height="105.8"/>
    </mask>
    <clipPath id="clippath-1">
      <path class="cls-19" d="M62.33,233.12c-16.31,7.1-32.62,14.2-48.93,21.31,13.94-2.48,27.88-4.95,41.83-7.43-3.8,7.42-7.6,14.84-11.39,22.25,75.45,0,71.08,9.17,100.28-47.7,5.25-10.3,10.51-20.6,15.76-30.9-32.51,14.16-65.03,28.32-97.54,42.47"/>
    </clipPath>
    <linearGradient id="Sfumatura_senza_nome_21-2" data-name="Sfumatura senza nome 21" x1="128.24" y1="303.69" x2="77.59" y2="219.5" xlink:href="#Sfumatura_senza_nome_21"/>
    <clipPath id="clippath-2">
      <path class="cls-19" d="M181.18,148.86c-5.11,10.02-10.22,20.04-15.33,30.06-33.5,16.1-67,32.2-100.5,48.3,3.09-6.04,6.19-12.09,9.28-18.13L181.18,0c21.4,41.99,42.8,83.99,64.2,125.98,29.46-5.9,50.51-10.11,50.51-10.11-14.89,7.2-29.78,14.39-44.66,21.59-20.29,9.8-40.57,19.61-60.86,29.42-3.06-6-6.12-12.01-9.19-18.01"/>
    </clipPath>
    <linearGradient id="Degradado_sin_nombre_4-4" data-name="Degradado sin nombre 4" x1="209.82" y1="38.93" x2="144.88" y2="205.04" xlink:href="#Degradado_sin_nombre_4"/>
    <linearGradient id="linear-gradient-2" x1="-1365.31" y1="152.7" x2="-1313.35" y2="337.94" gradientTransform="translate(1537.53 -205.55)" xlink:href="#linear-gradient"/>
    <mask id="mask-1" x="164.04" y="0" width="81.34" height="125.98" maskUnits="userSpaceOnUse">
      <rect class="cls-2" x="164.04" width="81.34" height="125.98"/>
    </mask>
    <linearGradient id="linear-gradient-3" x1="-1329.45" y1="229.13" x2="-1339.71" y2="386.35" gradientTransform="translate(1501.98 -146.49)" xlink:href="#linear-gradient"/>
    <mask id="mask-2" x="118.46" y="78.61" width="100.62" height="123.08" maskUnits="userSpaceOnUse">
      <rect class="cls-15" x="118.46" y="78.61" width="100.62" height="123.08"/>
    </mask>
    <linearGradient id="linear-gradient-4" x1="-1331.55" y1="171.91" x2="-1331.55" y2="329.13" gradientTransform="translate(1499.75 -145.42)" xlink:href="#linear-gradient"/>
    <mask id="mask-3" x="115.61" y="72.46" width="105.19" height="130.61" maskUnits="userSpaceOnUse">
      <rect class="cls-9" x="115.61" y="72.46" width="105.19" height="130.61"/>
    </mask>
    <linearGradient id="linear-gradient-5" x1="-1291.2" y1="130.9" x2="-1364.86" y2="331.66" gradientTransform="translate(1483.06 -170.69)" xlink:href="#linear-gradient"/>
    <mask id="mask-4" x="94.22" y="0" width="103.47" height="170.67" maskUnits="userSpaceOnUse">
      <rect class="cls-17" x="94.22" width="103.47" height="170.67"/>
    </mask>
    <linearGradient id="linear-gradient-6" x1="-1324.04" y1="261.46" x2="-1408.81" y2="448.08" gradientTransform="translate(1472.6 -93.37)" xlink:href="#linear-gradient"/>
    <mask id="mask-5" x="80.8" y="190.65" width="79.07" height="79.15" maskUnits="userSpaceOnUse">
      <rect class="cls-20" x="80.8" y="190.65" width="79.07" height="79.15"/>
    </mask>
  </defs>
  <g id="Livello_1-2" data-name="Livello 1">
    <polygon points="41.17 326.33 22.61 289.91 4.05 326.33 0 334.24 8.87 334.24 12.92 326.33 22.61 307.33 32.3 326.33 36.36 334.24 45.22 334.24 41.17 326.33"/>
    <path d="M61.66,291.65v43.01h-7.52v-43.01h7.52Z"/>
    <path class="cls-13" d="M69.77,291.54h8.23l14.54,28.96,14.48-28.96h8.23l-22.71,44.54-22.76-44.54Z"/>
    <path class="cls-6" d="M130.94,291.65v43.01h-7.52v-43.01h7.52Z"/>
    <path class="cls-18" d="M143.55,334.65v-43.01h29.18c3.79,0,7.02,1.37,9.71,4.06s4.06,5.87,4.06,9.65-1.37,7.02-4.06,9.71c-2.69,2.69-5.92,4-9.71,4h-21.67v15.58h-7.52ZM151.07,311.83h21.28c1.87,0,3.46-.6,4.72-1.86,1.32-1.26,1.97-2.8,1.97-4.61s-.66-3.35-1.92-4.61-2.85-1.92-4.77-1.92h-21.28v13Z"/>
    <path d="M196.38,334.65v-43.01h29.18c3.79,0,7.02,1.37,9.71,4.06s4.06,5.87,4.06,9.65-1.37,7.02-4.06,9.71c-2.69,2.69-5.92,4-9.71,4h-21.67v15.58h-7.52ZM203.89,311.83h21.28c1.87,0,3.46-.6,4.72-1.86,1.32-1.26,1.97-2.8,1.97-4.61s-.66-3.35-1.92-4.61-2.85-1.92-4.77-1.92h-21.28v13Z"/>
    <path d="M282.72,334.65l-14.65-15.58h-11.35v15.58h-7.52v-43.01h28.03c3.79,0,7.08,1.37,9.76,4.06,2.69,2.69,4.06,5.87,4.06,9.65s-1.26,6.86-3.84,9.44c-2.52,2.58-5.71,3.95-9.54,4.11l14.76,15.74h-9.71ZM256.72,311.83h20.19c1.87,0,3.46-.66,4.72-1.92,1.26-1.26,1.92-2.8,1.92-4.61s-.66-3.35-1.92-4.61-2.85-1.92-4.72-1.92h-20.19v13.05Z"/>
    <path d="M323.86,334.71c-6.53,0-12.12-2.08-16.79-6.25-4.66-4.17-6.97-9.27-6.97-15.3s2.3-11.19,6.97-15.3c4.66-4.17,10.26-6.25,16.79-6.25s12.07,2.08,16.73,6.25c4.66,4.17,6.97,9.27,6.97,15.3s-2.36,11.14-7.02,15.3c-4.66,4.17-10.2,6.25-16.68,6.25ZM323.86,327.36c4.44,0,8.28-1.37,11.46-4.17s4.77-6.14,4.77-10.04-1.59-7.24-4.77-10.04-7.02-4.17-11.46-4.17-8.34,1.37-11.52,4.17c-3.13,2.8-4.72,6.14-4.72,10.04s1.59,7.24,4.72,10.04c3.18,2.8,7.02,4.17,11.52,4.17Z"/>
    <g class="cls-24">
      <rect class="cls-7" x="194.75" y="148.43" width="123.78" height="121.36"/>
    </g>
    <g class="cls-8">
      <path class="cls-10" d="M276.64,268.6c-44.71-2.75-43.09-17.21-81.89-93.14l29.08-12.66,52.82,105.8Z"/>
    </g>
    <g class="cls-16">
      <rect class="cls-5" x="13.4" y="190.65" width="146.47" height="87.78"/>
    </g>
    <g class="cls-21">
      <rect class="cls-4" x="65.35" width="230.54" height="227.22"/>
    </g>
    <g class="cls-3">
      <path class="cls-12" d="M164.04,33.65L181.18,0c21.4,41.99,42.8,83.99,64.2,125.98l-81.34-92.34Z"/>
    </g>
    <g class="cls-14">
      <path class="cls-10" d="M181.18,148.86c-5.11,10.02-10.22,20.04-15.33,30.06l-47.39,22.78,62.72-123.08,37.9,74.38-28.72,13.88c-3.06-6-6.12-12.01-9.19-18.01"/>
    </g>
    <g class="cls-25">
      <polygon class="cls-12" points="118.72 201.19 181.18 78.61 218.93 152.69 220.8 152.17 181.18 72.46 115.61 203.07 118.72 201.19"/>
    </g>
    <g class="cls-22">
      <path class="cls-12" d="M94.22,170.67L197.69,32.39c-5.5-10.8-11-21.59-16.5-32.39l-86.97,170.67Z"/>
    </g>
    <g class="cls-1">
      <path class="cls-11" d="M111.38,211.76l-30.58,57.99c38.08.5,40.02-2.85,63.31-48.21,5.25-10.3,10.51-20.6,15.76-30.9l-48.49,21.11Z"/>
    </g>
  </g>
</svg>