<?xml version="1.0" standalone="no"?>
<!DOCTYPE svg PUBLIC "-//W3C//DTD SVG 20010904//EN"
 "http://www.w3.org/TR/2001/REC-SVG-20010904/DTD/svg10.dtd">
<svg version="1.0" xmlns="http://www.w3.org/2000/svg"
 width="600.000000pt" height="1600.000000pt" viewBox="0 0 600.000000 1600.000000"
 preserveAspectRatio="xMidYMid meet">
<metadata>
Created by potrace 1.16, written by Peter Selinger 2001-2019
</metadata>
<g transform="translate(0.000000,1600.000000) scale(0.100000,-0.100000)"
fill="#000000" stroke="none">
<path d="M3105 15969 c-12 -23 -13 -34 -5 -44 14 -17 3 -39 -58 -114 -25 -31
-56 -79 -68 -108 -13 -29 -28 -53 -33 -53 -25 0 -137 -226 -186 -375 -26 -82
-55 -145 -67 -145 -4 0 -8 22 -8 49 0 37 -4 50 -17 56 -26 9 -46 -21 -89 -133
-21 -53 -65 -142 -97 -197 -33 -55 -71 -127 -85 -160 -13 -33 -32 -69 -42 -80
-9 -11 -34 -51 -55 -90 -21 -38 -53 -90 -71 -115 -17 -25 -51 -79 -75 -121
-24 -42 -71 -116 -104 -165 -122 -179 -260 -435 -285 -527 -12 -45 -12 -49 10
-72 18 -20 21 -28 12 -37 -19 -19 -14 -38 19 -77 27 -33 65 -87 183 -268 85
-130 115 -180 125 -206 6 -14 19 -35 31 -47 22 -22 27 -60 8 -60 -21 0 -55 43
-62 77 -4 17 -14 34 -22 37 -8 3 -14 12 -14 20 0 18 -46 87 -90 136 -17 19
-38 47 -46 63 -8 15 -19 27 -24 27 -5 0 -17 15 -26 33 -18 34 -61 76 -81 77
-27 0 -24 -24 6 -52 17 -16 31 -32 31 -36 0 -4 15 -23 34 -43 18 -20 36 -44
39 -53 4 -9 14 -16 24 -16 17 -1 57 -55 84 -112 7 -16 16 -28 21 -28 5 0 17
-20 28 -45 11 -25 24 -45 30 -45 5 0 10 -9 10 -19 0 -11 9 -23 20 -26 12 -4
20 -15 20 -29 0 -12 11 -33 24 -45 13 -12 26 -36 30 -52 6 -30 20 -36 45 -20
22 14 51 -6 51 -33 0 -13 16 -40 35 -60 34 -36 45 -69 26 -80 -5 -3 -24 26
-42 64 -27 56 -39 70 -56 70 -22 0 -22 -1 9 -47 17 -27 38 -59 48 -73 9 -14
20 -37 24 -52 3 -16 13 -28 22 -28 11 0 13 6 9 20 -5 15 -2 20 13 20 21 0 47
-35 103 -135 18 -33 50 -85 71 -115 21 -30 38 -61 38 -69 0 -7 12 -28 28 -47
52 -63 69 -89 95 -140 14 -28 38 -65 52 -82 14 -17 46 -68 71 -113 42 -75 45
-87 39 -128 -6 -42 -5 -47 24 -71 31 -25 31 -25 10 -70 -12 -25 -32 -56 -44
-70 -13 -14 -26 -35 -29 -47 -4 -12 -29 -38 -56 -57 -28 -20 -50 -40 -50 -46
0 -5 -14 -25 -30 -44 -17 -18 -37 -49 -44 -68 -8 -19 -22 -40 -30 -48 -9 -7
-16 -17 -16 -22 0 -6 -11 -23 -25 -40 -14 -16 -25 -36 -25 -45 0 -8 -22 -55
-50 -103 -61 -109 -65 -126 -49 -190 19 -75 -4 -163 -74 -279 -57 -94 -73
-123 -147 -266 -90 -173 -154 -281 -198 -331 -102 -115 -147 -205 -167 -334
-3 -20 -21 -60 -41 -90 -20 -30 -47 -76 -60 -101 -12 -25 -33 -59 -46 -75 -13
-16 -32 -46 -43 -66 -11 -21 -23 -38 -27 -38 -5 0 -8 -7 -8 -15 0 -17 -120
-151 -156 -175 -35 -24 -84 -90 -77 -106 8 -22 29 -17 68 17 20 18 39 29 42
25 9 -9 -9 -40 -72 -126 -30 -41 -64 -91 -74 -111 -11 -19 -27 -41 -36 -49 -9
-8 -26 -32 -37 -54 -11 -22 -28 -52 -38 -66 -55 -80 -160 -253 -185 -305 -16
-33 -43 -80 -61 -105 -17 -25 -37 -63 -45 -85 -7 -22 -21 -49 -30 -60 -9 -11
-35 -60 -57 -110 -42 -94 -96 -191 -132 -237 -11 -15 -27 -42 -35 -62 -8 -19
-20 -38 -26 -42 -6 -3 -17 -22 -25 -40 -10 -23 -21 -34 -35 -34 -11 0 -18 -4
-14 -9 3 -6 0 -13 -7 -18 -7 -4 -21 -25 -30 -46 -10 -20 -24 -37 -32 -37 -8 0
-28 -24 -44 -52 -32 -58 -83 -141 -142 -233 -73 -111 -170 -318 -170 -360 0
-11 7 -31 16 -43 14 -21 13 -25 -15 -65 -17 -23 -40 -67 -51 -97 -12 -31 -39
-78 -60 -105 -30 -38 -37 -53 -29 -67 14 -25 24 -23 63 17 40 39 50 34 35 -18
-8 -29 -15 -37 -32 -37 -13 0 -35 -14 -50 -32 -58 -65 -62 -95 -14 -100 28 -3
35 -10 57 -55 14 -28 32 -60 41 -70 9 -10 31 -45 49 -78 18 -33 51 -79 72
-102 21 -24 38 -49 38 -57 0 -12 32 -91 63 -155 7 -13 29 -43 49 -66 21 -24
41 -58 44 -77 4 -18 12 -37 19 -43 11 -10 42 -65 170 -310 35 -66 75 -140 89
-165 14 -25 31 -56 38 -70 7 -14 31 -54 54 -90 23 -36 60 -104 83 -151 22 -47
50 -94 61 -104 11 -10 20 -23 20 -29 0 -6 18 -45 40 -86 21 -41 52 -100 68
-131 15 -31 38 -68 50 -83 11 -15 26 -44 33 -64 6 -20 17 -41 23 -47 7 -5 27
-41 45 -80 18 -38 41 -79 51 -90 9 -11 20 -32 24 -47 3 -14 28 -65 56 -113 27
-48 50 -90 50 -94 0 -5 13 -24 29 -44 15 -20 34 -57 41 -81 8 -31 23 -54 45
-71 24 -18 35 -36 40 -66 4 -22 13 -43 21 -46 8 -3 14 -10 14 -15 0 -6 14 -30
30 -55 17 -24 30 -49 30 -55 0 -6 27 -42 60 -79 61 -68 69 -86 49 -106 -16
-16 -1 -37 16 -23 34 28 81 -19 70 -69 -4 -19 1 -42 15 -70 26 -48 42 -54 33
-11 -9 47 12 36 46 -25 17 -30 36 -55 41 -55 5 0 21 -22 34 -48 13 -27 31 -54
39 -61 9 -7 18 -29 22 -50 4 -22 30 -71 65 -121 32 -45 66 -102 75 -126 12
-32 22 -44 37 -44 14 0 18 -5 13 -19 -4 -12 6 -33 31 -62 20 -24 46 -64 59
-89 30 -62 66 -121 93 -156 38 -49 93 -136 108 -173 8 -20 23 -45 34 -56 10
-11 22 -33 25 -50 4 -16 15 -41 23 -55 9 -14 25 -49 35 -79 10 -30 29 -70 43
-90 13 -19 24 -40 24 -45 0 -35 242 -470 291 -523 15 -15 41 -58 59 -95 18
-37 48 -85 66 -107 19 -21 34 -48 34 -59 0 -10 11 -36 25 -56 14 -20 32 -51
41 -69 18 -34 81 -117 153 -200 24 -28 61 -77 81 -109 21 -31 78 -100 128
-154 86 -91 92 -96 119 -87 15 5 35 22 43 39 9 16 23 40 32 54 21 32 35 120
19 120 -21 0 -11 39 18 72 39 46 53 78 85 193 14 55 36 127 47 160 12 33 27
81 34 106 7 26 20 60 29 77 9 17 16 46 16 65 0 49 26 116 61 160 35 44 72 123
66 140 -3 7 -19 -17 -35 -53 -27 -56 -31 -61 -31 -35 0 17 8 49 19 73 10 23
22 59 26 80 3 20 21 62 39 92 18 30 38 72 45 93 16 50 34 48 25 -3 -4 -22 -4
-40 -1 -40 12 0 56 100 62 141 6 37 5 41 -9 36 -24 -9 -40 25 -27 55 5 13 14
30 19 38 99 164 109 200 43 166 -17 -9 -34 -16 -38 -16 -11 0 6 69 27 104 11
18 21 57 23 85 2 40 9 58 29 79 15 16 27 37 27 48 0 18 27 98 54 159 8 17 17
41 21 55 4 14 17 43 30 65 12 22 31 69 40 105 10 36 26 81 35 100 10 19 21 50
25 67 3 18 17 54 31 80 13 27 24 58 24 71 0 12 6 33 14 45 8 12 22 51 31 87 9
36 30 92 46 126 21 44 28 68 23 91 -4 23 -1 35 14 49 11 11 25 45 32 77 6 32
34 118 61 190 27 73 49 139 49 148 0 9 11 37 25 63 14 26 25 57 25 69 0 33 32
108 44 104 6 -2 11 -12 11 -22 0 -10 6 -20 13 -22 8 -3 12 6 12 24 1 35 33
190 55 263 10 30 22 80 29 110 6 30 17 65 24 77 6 12 12 34 12 48 0 15 8 39
19 53 10 15 24 45 30 67 7 22 21 60 31 85 11 25 24 64 30 87 6 23 17 49 25 57
8 8 15 23 15 33 0 10 9 35 20 56 12 23 18 47 14 61 -4 17 -1 25 13 28 24 6 47
76 32 95 -16 19 -4 42 19 36 15 -3 22 3 31 28 6 17 11 43 11 57 0 14 8 44 19
66 44 97 94 224 102 265 5 24 14 50 20 57 6 7 21 53 34 102 13 49 33 108 44
130 12 23 21 52 21 64 0 13 9 41 20 63 12 24 20 59 20 92 0 28 4 54 9 57 5 3
11 20 14 38 3 18 12 58 20 89 8 32 11 62 6 70 -4 7 -3 19 2 26 6 7 15 63 20
125 6 62 14 117 18 123 4 5 15 30 25 54 15 39 15 45 2 60 -9 9 -14 30 -13 46
1 22 -3 30 -18 33 -11 2 -23 9 -27 16 -11 16 -9 58 2 76 9 13 15 9 41 -20 16
-19 40 -55 52 -80 22 -45 22 -45 25 4 2 36 -1 52 -11 58 -8 4 -18 19 -21 33
-3 13 -15 29 -26 35 -11 6 -20 19 -20 28 0 21 -74 170 -113 227 -15 22 -27 47
-27 56 0 18 -117 253 -149 298 -22 33 -81 156 -81 170 0 19 16 12 38 -19 12
-16 22 -32 22 -36 0 -3 9 -17 20 -31 11 -14 20 -34 20 -43 0 -10 7 -23 15 -30
19 -16 75 -116 75 -135 0 -9 7 -18 15 -21 8 -3 20 -25 26 -48 11 -42 93 -201
108 -211 5 -3 16 2 25 11 14 14 14 19 1 52 -9 20 -22 43 -29 52 -7 8 -21 38
-32 65 -10 28 -28 63 -41 78 -13 16 -26 41 -30 55 -7 30 -85 162 -120 205 -13
16 -23 36 -23 45 0 9 -11 27 -24 41 -13 15 -31 48 -40 75 -10 27 -30 64 -46
83 -16 18 -34 50 -40 72 -5 21 -17 44 -25 51 -8 7 -15 18 -15 25 0 7 -15 36
-34 63 -18 28 -39 65 -45 83 -6 18 -17 40 -25 48 -7 9 -30 54 -51 101 -21 46
-43 90 -50 96 -6 6 -17 30 -25 53 -11 33 -17 40 -32 35 -15 -5 -18 0 -18 34 0
34 -6 45 -45 81 -36 33 -44 46 -39 65 4 18 1 25 -15 29 -12 3 -21 13 -21 24 0
10 -16 42 -34 71 -19 29 -47 79 -62 112 -26 59 -37 70 -49 50 -12 -20 -26 2
-20 32 9 37 -9 80 -37 93 -12 6 -23 20 -24 31 -7 45 -24 75 -41 72 -13 -2 -19
5 -23 27 -3 17 -17 49 -32 72 -16 24 -28 45 -28 48 0 3 -12 24 -26 46 -20 32
-23 43 -13 55 8 10 8 14 0 14 -17 0 -77 100 -91 149 -16 62 -31 91 -46 91 -7
0 -18 19 -24 43 -19 73 -21 77 -36 77 -9 0 -14 11 -14 30 0 17 -4 30 -10 30
-5 0 -10 13 -10 29 0 15 -10 41 -22 56 -20 26 -22 27 -35 9 -12 -16 -13 -16
-13 -1 0 9 5 17 11 17 13 0 3 68 -13 88 -19 22 -31 13 -24 -18 5 -28 4 -30
-15 -19 -15 8 -19 16 -14 32 14 46 5 110 -21 140 -14 16 -31 43 -38 61 -7 17
-20 37 -29 45 -10 7 -17 22 -17 33 0 10 -18 38 -40 60 -22 23 -40 50 -40 60 0
35 -59 138 -79 138 -26 0 -44 24 -101 135 -28 55 -62 110 -76 121 -15 12 -24
28 -21 35 5 15 -39 98 -85 163 -15 21 -28 45 -28 52 0 7 -6 19 -14 27 -8 8
-28 43 -45 78 -17 35 -35 71 -40 79 -5 8 -15 28 -22 44 -8 17 -38 54 -67 84
-44 46 -55 52 -68 41 -12 -10 -21 -5 -54 30 -22 24 -41 50 -41 59 -1 10 -2 24
-3 32 -1 10 -10 14 -26 12 -51 -6 -53 4 -15 77 32 60 36 76 30 110 -6 38 -4
42 39 85 25 24 46 52 46 61 0 9 14 30 30 45 23 21 30 37 30 64 0 23 5 39 15
42 8 4 15 17 15 31 0 30 14 58 51 101 16 18 29 41 29 52 0 11 12 26 29 34 15
8 33 29 40 46 6 16 16 44 22 60 6 17 15 30 19 30 5 0 13 14 19 31 6 18 20 41
32 53 32 32 124 153 176 231 26 39 59 83 74 99 16 16 31 41 34 56 3 15 22 42
41 59 18 17 34 36 34 42 0 6 8 23 19 37 10 15 22 38 26 52 4 14 20 39 35 55
15 17 36 44 47 60 32 54 104 143 118 149 8 3 24 24 36 48 12 24 32 56 45 71
13 15 26 43 30 62 3 20 10 38 15 41 16 10 79 151 79 177 0 34 46 88 67 80 25
-10 11 16 -19 34 -14 9 -32 13 -41 10 -8 -3 -27 -41 -41 -84 -24 -71 -87 -171
-109 -173 -5 0 -11 9 -14 20 -3 11 -10 20 -17 20 -6 0 0 9 13 19 15 12 22 24
18 34 -4 10 3 28 17 44 30 36 53 82 77 152 18 52 52 101 71 101 4 0 17 -18 28
-39 26 -52 39 -59 61 -32 22 27 14 47 -30 76 -17 11 -35 32 -40 47 -6 15 -28
45 -50 67 -22 22 -43 52 -47 68 -4 15 -15 37 -24 48 -20 23 -53 92 -55 115 0
10 -9 14 -28 12 -26 -3 -27 -1 -27 41 0 53 -6 61 -34 42 -30 -22 -36 -19 -36
20 0 24 -9 44 -29 67 -16 19 -32 51 -36 72 -5 27 -14 40 -31 47 -14 5 -29 20
-34 33 -15 41 -157 250 -178 263 -11 7 -32 37 -47 67 -15 30 -35 58 -46 61
-10 3 -24 22 -31 41 -6 18 -15 34 -18 34 -18 0 -60 54 -60 78 0 34 -16 52 -47
52 -16 0 -21 4 -17 15 7 17 -14 75 -27 75 -5 0 -13 -9 -19 -20 -6 -11 -15 -20
-20 -20 -13 0 -13 47 0 55 18 11 11 32 -28 76 -22 24 -42 56 -46 71 -3 15 -17
38 -31 52 -14 14 -25 34 -25 45 0 11 -20 43 -45 71 -25 28 -45 57 -45 65 0 8
-13 28 -30 45 -16 17 -30 37 -30 45 0 8 -10 21 -22 30 -13 8 -37 39 -53 67
-38 64 -55 72 -55 24 0 -25 9 -45 29 -68 62 -70 111 -143 111 -164 0 -12 -6
-27 -14 -33 -23 -19 -52 30 -36 59 10 18 8 26 -11 46 -27 29 -39 30 -39 4 0
-27 -12 -25 -40 5 -14 15 -33 25 -45 23 -27 -4 -32 -44 -7 -71 34 -39 33 -43
-11 -43 -37 1 -42 4 -50 32 -7 23 -5 41 7 68 52 117 49 106 30 127 -12 14 -15
29 -11 59 5 40 5 40 -34 40 -33 0 -41 -4 -54 -31z m205 -380 c0 -10 -12 -11
-34 -3 -17 6 -22 35 -9 48 8 8 43 -29 43 -45z m-229 -55 c-12 -22 -35 -59 -51
-84 -16 -25 -47 -74 -69 -110 -21 -36 -49 -74 -60 -84 -12 -11 -31 -35 -43
-55 -12 -19 -24 -29 -26 -23 -3 11 61 114 98 157 10 11 23 37 30 58 12 37 56
121 95 180 16 24 20 26 32 14 13 -13 12 -20 -6 -53z m318 -36 c27 -45 61 -93
92 -131 15 -18 35 -46 45 -63 22 -37 159 -222 204 -275 16 -20 51 -68 76 -105
26 -38 58 -83 73 -100 14 -18 50 -71 80 -118 30 -47 57 -86 62 -86 7 0 74 -96
176 -250 24 -36 70 -94 103 -130 85 -93 150 -184 150 -211 0 -12 -8 -32 -19
-43 -10 -12 -26 -43 -36 -71 -10 -27 -31 -64 -47 -80 -15 -17 -28 -35 -28 -40
0 -6 -14 -23 -31 -40 -17 -16 -56 -75 -87 -130 -47 -83 -133 -207 -190 -275
-48 -57 -72 -91 -97 -135 -16 -27 -54 -81 -85 -120 -31 -38 -70 -90 -87 -115
-17 -25 -40 -54 -52 -64 -11 -11 -21 -25 -21 -33 0 -8 -13 -26 -30 -41 -16
-16 -42 -46 -57 -69 -31 -46 -133 -174 -169 -213 -37 -39 -65 -77 -138 -185
-37 -55 -81 -113 -96 -130 -16 -16 -41 -52 -57 -80 -35 -60 -64 -69 -89 -28
-9 15 -25 40 -35 55 -11 15 -19 34 -19 42 0 26 -22 65 -40 71 -10 3 -20 20
-24 38 -4 18 -15 39 -25 47 -10 8 -28 44 -40 78 -13 35 -31 72 -42 83 -10 10
-19 30 -19 43 0 14 -10 30 -25 40 -16 10 -29 33 -36 60 -7 28 -21 51 -40 65
-20 15 -29 30 -29 50 0 16 -13 44 -30 66 -19 24 -30 49 -30 70 0 26 -8 39 -40
65 -22 18 -40 40 -40 50 0 9 -11 34 -25 54 -14 20 -25 48 -25 62 0 17 -7 28
-18 31 -11 3 -23 21 -30 49 -7 24 -16 44 -21 44 -11 0 -121 153 -138 191 -6
15 -27 39 -47 55 -29 23 -36 36 -36 64 0 24 6 39 20 48 11 7 20 23 20 36 0 13
7 29 15 36 8 7 15 19 15 26 0 8 6 14 14 14 13 0 96 119 96 138 0 6 10 23 23
39 13 15 45 69 72 118 26 50 63 113 81 141 45 70 244 464 244 484 0 9 14 29
30 45 17 16 35 47 41 70 6 22 31 81 55 130 24 50 44 96 44 102 0 13 76 161 93
183 7 8 34 52 60 97 39 68 45 86 38 107 -8 18 -6 27 7 39 9 8 23 12 30 10 7
-3 11 1 10 7 -5 22 20 22 42 0 12 -12 20 -31 19 -43 -5 -37 21 -124 42 -143
10 -9 19 -25 19 -34 0 -9 25 -42 55 -74 30 -31 55 -66 55 -76 0 -11 9 -24 20
-30 11 -6 20 -19 20 -28 0 -10 13 -31 29 -47 17 -15 38 -50 47 -76 10 -27 23
-49 30 -49 6 0 15 -12 19 -27 3 -16 17 -41 29 -58 13 -16 35 -54 50 -84 16
-30 57 -87 92 -127 35 -41 64 -78 64 -83 0 -13 108 -115 131 -123 14 -6 18
-14 14 -31 -5 -19 0 -27 30 -43 20 -10 46 -35 58 -54 11 -19 37 -51 56 -71 60
-62 91 -106 91 -130 0 -13 14 -44 30 -69 16 -25 30 -53 30 -62 0 -21 13 -30
34 -22 20 8 21 63 1 70 -23 9 -46 65 -40 95 5 22 2 29 -15 34 -14 4 -24 21
-33 52 -6 24 -20 49 -29 54 -10 5 -18 15 -18 22 -1 11 -65 106 -158 233 -60
82 -109 160 -138 222 -14 29 -36 60 -49 68 -13 8 -26 27 -30 41 -3 14 -37 61
-74 104 -38 43 -76 100 -86 126 -10 25 -31 66 -47 89 -16 24 -37 63 -48 87
-11 24 -28 55 -39 68 -10 13 -26 42 -35 63 -9 22 -37 70 -61 107 -44 67 -55
99 -35 99 6 0 19 -15 29 -32z m-39 -224 c0 -8 -4 -12 -10 -9 -5 3 -10 10 -10
16 0 5 5 9 10 9 6 0 10 -7 10 -16z m60 -76 c0 -14 -19 1 -31 25 -12 22 -12 22
10 3 11 -11 21 -23 21 -28z m301 -435 c6 -16 22 -40 36 -55 24 -25 24 -48 0
-48 -14 0 -67 92 -67 115 0 25 20 17 31 -12z m-1119 -222 c-17 -20 -77 -119
-133 -221 -56 -102 -114 -201 -129 -220 -14 -19 -32 -50 -40 -68 -7 -18 -18
-36 -25 -40 -6 -4 -30 -39 -52 -77 -23 -39 -61 -92 -86 -119 -26 -27 -47 -58
-49 -69 -4 -28 -28 -34 -35 -8 -6 25 -16 27 -33 6 -6 -8 -22 -17 -33 -21 -12
-3 -33 -16 -46 -28 -24 -21 -24 -21 -17 9 4 17 19 48 35 70 15 22 42 72 61
111 24 52 45 81 77 105 107 83 136 109 153 137 10 16 36 47 58 68 22 22 50 59
62 83 12 24 35 56 51 70 16 15 41 45 56 68 16 22 55 81 88 129 42 64 60 84 63
70 2 -10 -10 -34 -26 -55z m-27 -198 c-7 -30 -31 -60 -40 -51 -4 3 1 22 9 42
18 43 41 50 31 9z m-215 -360 c-1 -25 -39 -75 -40 -51 0 22 21 68 32 68 4 0 8
-8 8 -17z m2160 -43 c0 -10 -13 -50 -29 -90 -22 -53 -46 -88 -90 -135 -34 -35
-61 -71 -61 -82 0 -17 -11 -36 -106 -177 -21 -32 -49 -75 -61 -95 -12 -20 -40
-57 -63 -83 -22 -26 -40 -52 -40 -58 0 -6 -10 -21 -22 -33 -13 -13 -41 -49
-63 -81 -22 -31 -52 -74 -67 -94 -15 -20 -49 -68 -75 -107 -26 -38 -69 -95
-96 -125 -27 -30 -56 -68 -64 -85 -9 -16 -27 -43 -40 -60 -54 -67 -93 -123
-121 -170 -16 -27 -63 -86 -103 -130 -41 -44 -86 -95 -101 -113 -15 -17 -30
-32 -35 -32 -4 0 -35 -30 -67 -65 -32 -36 -61 -64 -63 -61 -7 6 16 47 42 76
12 14 34 45 47 70 32 58 91 149 115 177 10 12 34 42 53 68 19 25 56 72 82 103
26 31 48 62 48 67 0 6 17 29 38 52 85 92 107 120 127 159 11 22 31 53 43 70
13 16 46 58 73 93 28 35 69 91 91 125 23 33 52 72 65 85 13 13 23 29 23 35 0
6 11 22 25 36 66 66 148 187 251 371 6 11 23 32 37 47 13 15 30 37 36 50 7 12
16 20 21 17 11 -7 40 22 40 40 0 8 6 18 14 22 7 4 28 39 45 76 30 64 51 79 51
37z m-2230 -75 c0 -8 -4 -15 -10 -15 -5 0 -10 7 -10 15 0 8 5 15 10 15 6 0 10
-7 10 -15z m-382 -282 c9 -21 23 -44 30 -51 7 -8 11 -17 9 -20 -2 -4 -7 -15
-10 -25 -6 -17 -10 -15 -33 12 -27 33 -49 95 -39 111 12 19 25 10 43 -27z
m337 -113 c3 -5 -1 -10 -9 -10 -9 0 -16 5 -16 10 0 6 4 10 9 10 6 0 13 -4 16
-10z m-67 -96 c23 -30 47 -65 51 -77 5 -12 23 -35 41 -50 17 -16 56 -67 87
-115 31 -48 75 -112 98 -143 23 -30 55 -77 70 -105 16 -27 40 -62 53 -79 13
-16 42 -61 64 -100 22 -38 49 -79 59 -91 11 -11 19 -30 19 -43 0 -12 12 -34
28 -49 31 -31 37 -40 88 -140 20 -41 47 -86 59 -100 12 -15 27 -41 34 -59 7
-17 21 -39 32 -49 10 -9 19 -23 19 -30 0 -7 11 -26 25 -42 27 -32 32 -71 14
-89 -17 -17 -89 43 -89 73 0 13 -21 47 -50 80 -27 31 -50 61 -50 65 0 23 -121
251 -150 284 -10 11 -30 43 -44 70 -44 83 -76 137 -125 208 -25 38 -50 76 -56
85 -42 70 -83 132 -107 160 -15 18 -28 39 -28 46 0 8 -7 19 -16 27 -9 7 -31
42 -49 78 -18 36 -43 75 -55 86 -26 23 -32 35 -59 104 -12 28 -17 51 -13 50 4
0 26 -25 50 -55z m114 29 c7 -16 23 -45 35 -65 25 -40 28 -52 14 -46 -18 6
-81 99 -81 118 0 29 18 25 32 -7z m-130 -253 c49 -101 89 -192 85 -197 -8 -8
-38 38 -87 132 -28 55 -62 109 -76 120 -13 12 -24 26 -24 32 0 6 -16 32 -35
57 -58 76 -39 76 33 1 43 -46 80 -97 104 -145z m2018 109 c0 -5 -13 -27 -29
-47 -15 -20 -41 -56 -57 -79 -98 -140 -170 -230 -197 -245 -20 -10 -20 -10 -1
20 57 92 84 129 128 180 26 31 68 85 93 120 42 58 63 76 63 51z m-1751 -48 c9
-6 11 -16 6 -31 -7 -23 -7 -23 -25 1 -25 32 -13 50 19 30z m151 -240 c0 -6 -4
-13 -10 -16 -5 -3 -10 1 -10 9 0 9 5 16 10 16 6 0 10 -4 10 -9z m1540 -36 c-7
-9 -15 -13 -18 -10 -3 2 1 11 8 20 7 9 15 13 18 10 3 -2 -1 -11 -8 -20z
m-1842 -46 c-3 -8 -7 -3 -11 10 -4 17 -3 21 5 13 5 -5 8 -16 6 -23z m-83 -78
c-10 -16 -25 -3 -25 22 0 20 1 20 16 5 9 -9 13 -21 9 -27z m230 -131 c3 -5 1
-10 -4 -10 -6 0 -11 5 -11 10 0 6 2 10 4 10 3 0 8 -4 11 -10z m1355 -60 c0 -5
-5 -10 -11 -10 -5 0 -7 5 -4 10 3 6 8 10 11 10 2 0 4 -4 4 -10z m-1259 -103
c12 -23 38 -67 59 -97 20 -30 52 -78 71 -107 19 -29 75 -104 124 -168 96 -124
167 -233 163 -247 -7 -20 -52 29 -75 83 -20 47 -30 59 -48 59 -23 0 -37 17
-97 119 -15 25 -32 55 -37 67 -5 11 -31 53 -58 93 -87 131 -143 224 -143 238
0 23 19 5 41 -40z m1219 38 c0 -30 -99 -173 -100 -145 0 20 52 122 70 137 16
13 30 17 30 8z m-112 -177 c-6 -18 -28 -21 -28 -4 0 9 7 16 16 16 9 0 14 -5
12 -12z m-86 -90 c-7 -7 -12 -8 -12 -2 0 14 12 26 19 19 2 -3 -1 -11 -7 -17z
m-45 -73 c3 -10 -10 -34 -33 -63 -57 -68 -89 -113 -108 -149 -14 -29 -52 -60
-61 -51 -4 4 104 168 137 206 15 18 29 41 33 52 8 24 23 26 32 5z m-200 -119
c-9 -24 -98 -136 -108 -136 -22 0 -6 33 44 89 50 58 75 76 64 47z m185 -112
c-2 -14 -15 -30 -28 -36 -21 -10 -54 -62 -54 -86 0 -5 -16 -27 -35 -47 -29
-33 -35 -36 -41 -21 -4 11 1 28 15 44 12 15 46 60 77 100 58 77 74 88 66 46z
m-352 -88 c0 -16 -18 -31 -27 -22 -8 8 5 36 17 36 5 0 10 -6 10 -14z m170
-475 c22 -45 22 -45 -10 -13 -21 21 -30 38 -26 49 8 19 8 19 36 -36z m-520
-111 c0 -11 -9 -25 -20 -32 -11 -7 -20 -18 -20 -24 0 -11 -54 -129 -95 -205
-14 -26 -25 -56 -25 -68 0 -11 -13 -35 -29 -53 -16 -18 -39 -52 -51 -76 -12
-23 -28 -42 -36 -42 -21 0 -18 10 27 107 68 145 74 156 103 203 16 24 37 63
48 86 10 23 25 44 33 47 8 4 21 22 29 42 16 38 36 47 36 15z m260 -1 c0 -5 -4
-9 -10 -9 -5 0 -10 7 -10 16 0 8 5 12 10 9 6 -3 10 -10 10 -16z m473 9 c40
-21 87 -93 87 -133 0 -13 7 -25 15 -29 8 -3 15 -15 15 -26 0 -31 -34 -22 -38
10 -2 14 -10 32 -17 40 -7 8 -32 42 -54 75 -52 76 -53 88 -8 63z m-325 -14
c12 -8 22 -24 22 -34 0 -10 5 -22 10 -25 6 -3 10 -15 10 -25 0 -10 8 -32 18
-49 17 -31 32 -40 32 -21 0 6 9 10 20 10 23 0 24 -3 8 -46 -10 -27 -8 -36 10
-66 12 -20 22 -42 22 -50 0 -8 13 -32 30 -54 16 -21 30 -47 30 -57 0 -26 19
-58 51 -88 19 -18 26 -32 23 -47 -4 -13 7 -39 30 -73 20 -30 36 -58 36 -63 0
-19 100 -216 110 -216 5 0 10 -12 10 -26 0 -14 21 -67 46 -117 54 -108 62
-125 66 -152 2 -12 12 -21 26 -23 15 -2 22 -10 21 -20 -1 -9 0 -24 4 -32 3 -8
8 -26 11 -40 8 -38 32 -67 46 -54 7 7 6 23 -5 54 -15 43 -15 45 7 62 33 26 46
22 65 -17 18 -38 12 -55 -12 -35 -9 7 -17 11 -19 9 -2 -2 -6 -38 -10 -80 -7
-76 -7 -76 35 -127 37 -47 69 -67 69 -43 0 5 21 9 46 9 46 0 46 0 40 -31 -9
-45 -21 -52 -45 -28 -20 20 -61 29 -61 14 0 -4 9 -26 21 -50 20 -42 49 -58 49
-28 0 8 5 15 10 15 13 0 13 -33 -1 -47 -6 -6 -8 -19 -5 -29 3 -11 5 -22 3 -26
-1 -4 12 -22 28 -40 17 -18 39 -51 50 -73 14 -30 20 -35 23 -22 2 10 -3 26
-12 36 -9 10 -16 26 -16 36 0 10 -8 27 -17 37 -16 18 -16 19 12 8 41 -15 55
-29 55 -52 0 -11 13 -32 29 -47 17 -16 33 -41 37 -57 3 -16 19 -42 34 -59 35
-38 50 -67 50 -98 0 -14 7 -27 15 -31 8 -3 15 -12 15 -20 0 -7 7 -16 15 -20 8
-3 15 -16 15 -28 0 -14 13 -33 33 -49 19 -16 37 -43 45 -68 7 -24 22 -56 34
-72 21 -28 21 -29 3 -43 -18 -13 -18 -15 11 -52 39 -53 54 -80 54 -103 0 -10
7 -24 15 -31 8 -7 15 -18 15 -25 0 -7 7 -18 15 -25 9 -7 14 -22 13 -34 -2 -15
3 -22 20 -24 12 -2 22 -9 22 -16 0 -7 10 -17 23 -23 16 -8 22 -18 22 -44 0
-25 6 -36 24 -45 29 -15 38 -28 52 -78 6 -21 26 -61 45 -88 19 -28 34 -61 34
-74 0 -13 16 -41 35 -63 22 -24 35 -49 35 -66 0 -19 12 -39 35 -62 19 -19 35
-42 35 -53 0 -10 15 -38 34 -63 55 -72 58 -82 37 -108 -23 -28 -12 -60 17 -52
12 3 22 -2 26 -13 8 -21 -2 -33 -13 -15 -5 7 -14 10 -20 7 -11 -7 -11 -8 29
-71 10 -16 19 -38 19 -47 1 -28 23 -68 38 -68 7 0 13 -9 13 -21 0 -46 60 -120
91 -112 11 3 19 0 19 -7 0 -7 -7 -10 -15 -6 -25 9 -30 -23 -10 -58 10 -17 31
-43 47 -58 15 -14 28 -33 28 -41 0 -18 29 -70 78 -140 49 -71 172 -313 172
-339 0 -12 10 -33 23 -46 19 -21 22 -33 20 -97 -1 -42 -8 -85 -17 -102 -8 -16
-18 -58 -22 -94 -4 -35 -15 -80 -26 -100 -10 -20 -25 -65 -32 -100 -8 -35 -21
-81 -30 -101 -9 -21 -16 -59 -16 -86 0 -32 -5 -54 -15 -62 -8 -7 -15 -18 -15
-24 0 -6 -7 -24 -15 -40 -20 -38 -55 -180 -55 -222 0 -18 -5 -36 -10 -39 -15
-9 -47 -85 -55 -130 -4 -22 -16 -57 -26 -77 -11 -21 -19 -46 -19 -56 0 -10
-12 -43 -27 -73 -14 -30 -30 -74 -34 -99 -16 -101 -23 -125 -46 -159 -16 -23
-23 -47 -21 -68 2 -23 -4 -38 -20 -53 -14 -14 -22 -33 -22 -55 0 -38 -18 -86
-37 -98 -8 -5 -11 -12 -8 -17 3 -5 1 -17 -4 -27 -19 -34 -41 -95 -41 -116 0
-11 -6 -28 -14 -36 -25 -29 -69 -154 -75 -218 -4 -36 -14 -70 -24 -81 -20 -22
-95 -242 -89 -260 2 -7 -5 -31 -16 -55 -28 -59 -62 -155 -62 -173 0 -9 -9 -27
-20 -41 -11 -14 -20 -39 -20 -55 0 -15 -12 -46 -26 -67 -14 -22 -28 -59 -31
-83 -3 -24 -9 -47 -13 -53 -11 -14 -50 -121 -61 -170 -6 -21 -15 -46 -22 -53
-12 -15 -35 -72 -44 -109 -3 -12 -11 -28 -19 -34 -8 -6 -14 -24 -14 -39 0 -16
-16 -58 -35 -94 -19 -37 -35 -73 -35 -81 0 -15 -33 -108 -85 -243 -14 -34 -25
-78 -25 -96 0 -18 -11 -58 -25 -87 -13 -30 -28 -79 -33 -109 -6 -30 -15 -68
-20 -85 -6 -16 -18 -66 -27 -110 -9 -44 -24 -102 -34 -130 -10 -27 -24 -68
-31 -89 -14 -45 -45 -225 -61 -361 -8 -67 -20 -108 -45 -159 -19 -39 -34 -81
-34 -95 0 -13 -7 -32 -16 -42 -8 -9 -17 -37 -19 -61 -5 -51 -28 -153 -43 -188
-6 -14 -20 -59 -32 -100 -12 -41 -28 -90 -36 -108 -7 -17 -27 -86 -44 -153
-17 -66 -40 -144 -50 -172 -11 -29 -20 -67 -20 -85 0 -31 -24 -82 -39 -82 -4
0 -12 15 -19 32 -6 18 -23 46 -37 63 -39 44 -62 84 -80 140 -10 28 -23 57 -30
65 -7 8 -22 34 -34 57 -11 23 -34 51 -51 63 -19 14 -30 30 -30 45 0 14 -13 39
-28 57 -16 18 -39 50 -51 71 -13 21 -29 43 -36 51 -7 7 -23 35 -35 63 -12 28
-33 61 -46 74 -16 15 -24 33 -24 56 0 23 -6 36 -17 40 -27 9 -53 45 -53 75 0
40 -10 58 -31 58 -23 0 -42 40 -41 86 0 26 -3 31 -19 27 -13 -4 -20 2 -25 21
-3 14 -12 30 -20 37 -8 6 -14 19 -14 29 0 21 -63 136 -91 166 -10 11 -19 27
-19 35 0 9 -9 34 -20 57 -11 22 -20 48 -20 57 0 12 -6 15 -20 10 -17 -5 -20
-2 -20 24 0 23 -7 34 -29 45 -22 12 -30 25 -35 57 -4 26 -19 56 -40 80 -18 21
-45 63 -61 94 -15 30 -32 58 -37 61 -5 4 -18 27 -29 52 -11 24 -32 64 -48 87
-16 24 -32 53 -36 64 -5 18 -13 21 -48 19 -41 -3 -42 -2 -45 30 -2 19 4 44 12
57 18 27 21 55 6 55 -5 0 -13 -8 -19 -17 -15 -27 -25 -8 -23 46 1 52 -10 79
-69 171 -37 57 -66 87 -75 77 -3 -3 -1 -13 5 -24 6 -10 16 -31 21 -46 6 -16
19 -31 30 -34 11 -3 20 -14 20 -23 0 -10 8 -21 19 -25 13 -4 17 -12 13 -30 -2
-14 -9 -25 -15 -25 -21 0 -77 64 -77 87 0 24 -14 31 -25 13 -11 -18 -25 -11
-25 13 0 41 -27 98 -51 110 -15 8 -30 32 -44 71 -12 33 -26 61 -33 64 -6 2
-17 22 -23 45 -6 23 -25 62 -43 87 -42 59 -106 168 -106 182 0 5 11 19 25 30
25 20 34 61 15 73 -14 8 -49 -34 -50 -60 -1 -18 -3 -17 -25 8 -14 15 -25 36
-25 46 0 23 36 56 45 42 9 -16 25 -13 25 4 0 8 -4 15 -9 15 -6 0 -11 15 -13
32 -2 22 -10 36 -27 44 -15 8 -30 31 -42 64 -10 29 -30 63 -44 76 -18 17 -24
30 -20 44 4 13 -2 26 -19 41 -15 13 -26 28 -26 35 0 14 -39 78 -64 106 -9 10
-16 27 -16 37 0 11 -5 23 -11 26 -5 4 -14 17 -20 28 -5 12 -13 29 -18 37 -4 8
-16 31 -26 50 -36 70 -70 119 -84 120 -9 0 -11 7 -8 22 4 14 -6 41 -28 80 -19
33 -35 67 -35 77 0 9 -14 30 -30 46 -20 19 -30 39 -30 58 0 20 -6 30 -20 34
-11 3 -20 11 -20 18 0 7 -7 18 -15 25 -8 7 -15 24 -15 37 0 14 -13 45 -30 70
-16 24 -30 50 -30 58 0 8 -11 26 -24 40 -13 14 -27 41 -30 59 -4 18 -15 41
-26 51 -11 10 -20 26 -20 35 0 10 -7 23 -15 30 -8 7 -15 23 -15 36 0 13 -9 32
-20 41 -11 10 -20 23 -20 29 0 21 -33 79 -63 111 -21 22 -28 38 -24 53 4 14
-4 31 -22 53 -16 18 -34 49 -41 71 -7 21 -34 72 -61 115 -27 42 -58 96 -69
121 -71 156 -106 210 -128 196 -16 -10 -37 23 -24 36 17 17 15 58 -3 64 -8 4
-15 12 -15 20 0 7 -9 22 -21 33 -12 11 -19 28 -17 42 2 19 -2 25 -19 27 -17 3
-23 10 -23 28 0 14 -13 36 -30 53 -26 25 -32 38 -36 89 -8 107 59 264 125 292
22 9 32 23 45 65 18 56 41 94 50 84 4 -3 -3 -25 -16 -48 -16 -30 -19 -44 -11
-52 15 -15 48 -3 61 24 7 12 22 34 33 49 13 16 25 50 30 84 4 31 19 79 33 106
14 28 26 55 26 61 0 6 7 18 16 28 9 10 20 40 25 66 5 26 15 53 22 58 24 19 47
64 47 92 0 14 8 36 19 47 26 30 53 113 38 119 -7 3 -1 14 16 29 15 12 35 43
45 68 26 66 68 144 86 159 9 8 16 19 16 26 0 16 58 132 84 170 12 17 28 44 35
60 7 17 22 46 33 65 10 19 26 51 35 70 8 19 19 42 24 50 5 8 33 65 63 125 30
61 64 119 75 129 12 11 21 27 21 38 0 10 9 27 20 38 11 11 20 27 20 35 0 8 18
31 40 51 28 26 40 46 40 64 0 15 9 35 20 45 11 10 20 26 20 37 0 10 6 18 13
19 10 0 10 2 0 6 -21 8 -15 50 10 70 12 10 23 27 24 38 4 44 16 81 33 100 24
28 76 132 91 184 7 24 41 86 75 137 58 86 83 131 98 177 3 9 12 17 20 17 7 0
16 9 19 20 3 11 14 20 24 20 24 0 52 30 86 93 22 40 25 57 22 112 -3 66 9 97
21 50 3 -14 10 -25 15 -25 14 0 29 37 29 73 0 20 8 44 20 57 11 13 25 41 31
64 6 22 22 53 35 69 13 16 24 33 24 38 0 5 19 29 41 52 48 49 86 124 71 139
-7 7 -5 26 5 57 23 68 27 74 61 90 34 18 50 41 27 41 -10 0 -15 10 -15 30 0
23 6 33 25 42 20 9 25 18 25 48 0 26 7 43 25 60 14 13 25 30 25 39 0 18 59 81
76 81 6 0 15 15 18 33 9 47 34 81 51 67 19 -16 29 5 13 29 -10 16 -8 25 13 58
14 21 36 61 50 90 19 41 28 51 43 46 16 -5 18 -1 12 43 -4 35 -2 56 8 74 8 14
22 40 30 58 16 34 40 42 50 16 3 -8 10 -13 15 -10 12 8 19 63 10 78 -12 19 9
50 30 43 14 -4 22 3 32 27 14 36 57 98 68 98 4 0 17 -7 29 -16z m212 -63 c0
-11 -5 -10 -20 4 -11 10 -20 28 -20 39 0 20 1 20 20 -4 11 -14 20 -31 20 -39z
m40 -77 c14 -35 12 -54 -4 -54 -16 0 -26 21 -26 56 0 32 18 31 30 -2z m65
-141 c24 -28 31 -53 19 -66 -6 -6 -54 73 -54 88 0 11 12 4 35 -22z m-116 -24
c-9 -17 -13 -18 -26 -8 -13 12 -13 14 3 26 23 17 37 6 23 -18z m64 -99 c3 -11
1 -18 -4 -14 -5 3 -9 12 -9 20 0 20 7 17 13 -6z m81 -127 c4 -14 15 -23 27
-23 11 0 21 -6 23 -12 2 -7 9 -30 16 -51 8 -28 9 -42 1 -50 -14 -14 -37 6 -46
41 -3 15 -17 36 -31 47 -18 15 -25 33 -29 68 -4 48 -4 48 14 25 10 -13 21 -33
25 -45z m125 -217 c12 -18 21 -43 21 -55 0 -27 -27 -28 -35 -1 -3 11 -13 20
-20 20 -16 0 -31 43 -20 59 12 20 33 11 54 -23z m50 -117 c14 -41 14 -49 -1
-49 -16 1 -58 35 -58 47 0 13 22 33 36 33 7 0 17 -14 23 -31z m209 -94 c-3 -3
-9 2 -12 12 -6 14 -5 15 5 6 7 -7 10 -15 7 -18z m-113 -95 c-17 -18 -20 -19
-34 -6 -12 13 -12 20 -2 42 12 27 12 27 33 6 21 -21 21 -22 3 -42z m183 -8 c6
-12 12 -30 12 -39 -1 -11 -9 -4 -20 19 -11 20 -24 40 -30 43 -5 3 -10 14 -10
22 0 14 3 14 18 -3 9 -11 23 -30 30 -42z m-140 -80 c2 -13 -2 -29 -8 -37 -10
-12 -15 -12 -36 3 -39 29 -30 65 16 60 17 -2 26 -10 28 -26z m423 -59 c6 -16
15 -36 20 -45 12 -24 11 -28 -6 -28 -14 0 -45 59 -45 86 0 24 20 15 31 -13z
m-1971 2 c-7 -9 -15 -13 -17 -11 -7 7 7 26 19 26 6 0 6 -6 -2 -15z m1776 -43
c-9 -8 -26 10 -26 26 1 15 2 15 15 -2 8 -11 13 -21 11 -24z m-1832 -57 c-4 -8
-10 -15 -15 -15 -5 0 -9 7 -9 15 0 8 7 15 15 15 9 0 12 -6 9 -15z m1706 -90
c9 -11 16 -13 23 -6 7 7 18 3 33 -12 29 -27 29 -35 2 -64 -23 -25 -38 -30 -38
-13 0 6 -9 23 -19 38 -36 51 -36 100 -1 57z m310 -182 c0 -13 -4 -23 -9 -23
-12 0 -21 25 -21 58 0 25 1 25 15 6 8 -10 15 -29 15 -41z m70 -129 c0 -8 -4
-14 -10 -14 -5 0 -10 9 -10 21 0 11 5 17 10 14 6 -3 10 -13 10 -21z m-2180
-91 c0 -10 -5 -25 -10 -33 -13 -21 -34 2 -25 29 8 25 35 28 35 4z m-107 -29
c12 -12 -136 -282 -160 -291 -23 -9 -40 14 -22 29 26 22 69 96 69 119 0 21 -1
22 -20 4 -11 -10 -20 -24 -20 -32 0 -7 -6 -16 -14 -19 -7 -3 -19 -24 -26 -47
-8 -23 -26 -56 -42 -72 -15 -17 -28 -35 -28 -40 0 -6 -14 -30 -30 -55 -16 -25
-30 -53 -30 -62 0 -21 -19 -33 -32 -20 -6 6 -2 23 12 48 12 22 42 78 68 125
99 181 104 189 145 200 36 9 70 49 90 102 6 17 28 23 40 11z m-403 -634 c0 -5
-7 -10 -15 -10 -8 0 -15 5 -15 10 0 6 7 10 15 10 8 0 15 -4 15 -10z m-30 -184
c-6 -8 -24 -42 -41 -77 -17 -35 -39 -74 -50 -87 -10 -14 -19 -36 -19 -49 0
-31 -44 -115 -83 -162 -16 -19 -35 -48 -42 -65 -7 -17 -25 -44 -40 -61 -37
-40 -195 -290 -195 -307 0 -7 -13 -29 -29 -48 -15 -19 -38 -55 -51 -80 -13
-25 -36 -61 -51 -80 -16 -19 -29 -41 -29 -48 0 -8 -13 -30 -30 -49 -16 -18
-30 -44 -30 -56 0 -12 -18 -48 -41 -80 -60 -85 -70 -74 -24 28 7 16 16 42 19
57 4 15 17 38 30 50 29 29 66 83 66 97 0 5 11 21 24 36 13 14 33 53 46 87 12
34 38 89 56 123 19 34 34 67 34 73 0 6 13 30 29 54 16 24 36 60 45 81 18 45
52 76 84 77 12 0 22 4 22 9 0 5 23 43 50 84 28 42 62 102 77 134 14 32 45 90
68 128 23 39 50 86 60 105 10 19 25 43 34 54 14 16 16 17 19 2 2 -9 -1 -23 -8
-30z m3438 -83 c3 -17 -2 -23 -15 -23 -28 0 -44 15 -37 34 10 25 48 16 52 -11z
m-138 -76 c0 -5 -4 -5 -10 -2 -5 3 -10 14 -10 23 0 15 2 15 10 2 5 -8 10 -19
10 -23z m182 -9 c16 -18 31 -49 35 -71 4 -27 13 -42 29 -49 13 -6 24 -20 24
-30 0 -10 7 -21 15 -25 16 -6 45 -64 45 -90 0 -8 13 -35 30 -59 16 -24 35 -63
41 -86 7 -24 21 -52 31 -64 10 -11 18 -27 18 -36 0 -8 12 -32 26 -53 14 -21
28 -55 31 -74 5 -36 5 -36 -17 -11 -12 14 -28 39 -36 55 -8 17 -23 44 -34 60
-11 17 -23 37 -26 45 -4 8 -12 22 -18 30 -7 8 -18 33 -25 55 -22 69 -92 204
-122 236 -16 17 -29 40 -29 51 0 11 -11 34 -25 52 -25 33 -44 96 -30 96 5 0
21 -14 37 -32z m-3772 -12 c0 -8 -9 -24 -20 -37 -17 -21 -19 -22 -20 -6 0 23
18 57 30 57 6 0 10 -6 10 -14z m3708 -202 c11 -22 31 -52 44 -66 15 -14 29
-42 33 -65 4 -25 17 -50 32 -64 14 -13 42 -58 63 -99 20 -41 46 -91 58 -110
13 -19 34 -59 48 -89 20 -42 23 -55 13 -62 -19 -11 -23 -6 -54 58 -15 32 -33
69 -40 83 -8 14 -28 52 -44 85 -17 33 -35 68 -41 78 -23 40 -31 53 -39 74 -6
11 -15 24 -20 28 -6 3 -11 17 -11 31 0 14 -7 27 -15 30 -20 8 -89 149 -80 164
8 12 18 -2 53 -76z m502 -565 c0 -21 -22 -17 -45 8 -37 42 -31 59 10 27 19
-14 35 -30 35 -35z m-4620 -87 c0 -14 -36 -43 -43 -35 -4 3 0 15 10 25 17 19
33 24 33 10z m4310 -50 c0 -7 -4 -10 -10 -7 -5 3 -10 16 -10 28 0 18 2 19 10
7 5 -8 10 -21 10 -28z m-4431 -135 c-7 -18 -25 -46 -40 -64 -15 -17 -29 -37
-31 -45 -3 -7 -8 -11 -11 -7 -8 6 27 80 62 133 28 42 40 33 20 -17z m4701 -58
c0 -6 -4 -7 -10 -4 -5 3 -10 11 -10 16 0 6 5 7 10 4 6 -3 10 -11 10 -16z
m-4639 -255 c-13 -25 -25 -43 -27 -41 -5 5 16 69 29 85 21 26 19 0 -2 -44z
m-421 -81 c0 -14 -74 -153 -82 -153 -4 0 -8 2 -8 4 0 14 74 156 81 156 5 0 9
-3 9 -7z m322 -125 c-7 -7 -12 -8 -12 -2 0 14 12 26 19 19 2 -3 -1 -11 -7 -17z
m5085 -62 c-7 -19 -57 -22 -57 -4 0 6 10 22 22 35 22 24 23 24 32 4 5 -11 6
-27 3 -35z m-5509 -19 c-7 -14 -13 -17 -16 -9 -6 19 6 44 18 37 7 -4 6 -14 -2
-28z m382 -146 c-6 -12 -15 -21 -20 -21 -17 0 -11 39 8 49 21 12 27 -1 12 -28z
m5065 19 c3 -5 1 -10 -4 -10 -6 0 -11 5 -11 10 0 6 2 10 4 10 3 0 8 -4 11 -10z
m25 -56 c0 -8 -4 -12 -10 -9 -5 3 -10 10 -10 16 0 5 5 9 10 9 6 0 10 -7 10
-16z m-5490 -86 c-28 -71 -42 -97 -57 -103 -31 -11 -33 11 -4 45 15 19 36 50
45 68 22 42 33 34 16 -10z m76 -165 c-11 -11 -19 6 -11 24 8 17 8 17 12 0 3
-10 2 -21 -1 -24z m-102 -228 c-11 -35 -19 -36 -41 -7 -21 28 -21 28 13 28 29
-1 33 -4 28 -21z m5355 -7 c-5 -18 -9 -35 -9 -37 0 -3 -5 0 -10 5 -7 7 -8 19
-1 37 15 39 32 34 20 -5z m-5461 -44 c-4 -29 -4 -29 -15 -4 -12 28 -6 57 9 42
5 -5 8 -22 6 -38z m250 4 c2 -15 14 -37 26 -50 45 -45 59 -94 31 -105 -23 -8
-54 25 -65 71 -6 23 -15 49 -21 59 -12 22 -2 60 14 54 7 -2 13 -15 15 -29z
m5376 -32 c-3 -14 -10 -26 -15 -26 -10 0 -12 53 -2 63 13 13 24 -10 17 -37z
m-5424 -40 c0 -37 6 -51 35 -82 39 -41 43 -54 18 -54 -19 0 -93 63 -93 78 0 5
-9 12 -21 15 -16 4 -19 10 -14 29 8 25 43 57 63 58 8 0 12 -15 12 -44z m-149
14 c10 -6 19 -16 19 -23 0 -7 9 -30 20 -52 33 -66 6 -60 -35 7 -21 35 -40 66
-42 71 -6 10 15 9 38 -3z m5559 -46 c0 -32 -41 -154 -52 -154 -14 0 -4 75 18
129 16 42 34 54 34 25z m-5241 -155 c26 -45 29 -88 6 -69 -8 7 -15 18 -15 26
0 7 -8 19 -18 26 -29 21 -54 66 -39 71 19 6 44 -14 66 -54z m5004 6 c4 -8 2
-17 -3 -20 -6 -4 -10 3 -10 14 0 25 6 27 13 6z m171 -62 c-9 -45 -26 -83 -35
-83 -5 0 -7 12 -3 28 9 44 26 82 35 82 5 0 7 -12 3 -27z m-5311 -96 c-7 -12
-19 3 -28 33 -8 25 -8 25 13 0 11 -14 18 -29 15 -33z m257 -15 c0 -9 9 -35 21
-56 11 -21 18 -43 16 -49 -3 -7 -12 5 -21 25 -9 20 -20 39 -26 43 -13 8 -13
55 0 55 6 0 10 -8 10 -18z m-214 -27 c9 -14 14 -28 11 -32 -7 -6 -46 36 -47
50 0 16 20 6 36 -18z m5219 -7 c-2 -7 -15 -49 -29 -93 -29 -93 -75 -198 -75
-174 -1 20 63 224 81 257 12 23 30 31 23 10z m-5162 -84 c17 -34 16 -54 -2
-54 -5 0 -11 12 -14 28 -3 15 -9 35 -12 45 -13 33 11 17 28 -19z m61 -90 c3
-9 6 -28 5 -42 -1 -27 -1 -27 -14 3 -8 17 -14 36 -15 43 0 17 17 15 24 -4z
m256 -113 c0 -34 -15 -49 -24 -25 -11 28 -6 54 9 54 10 0 15 -10 15 -29z m-63
-28 c-3 -10 -5 -4 -5 12 0 17 2 24 5 18 2 -7 2 -21 0 -30z m118 -81 c-8 -9
-25 20 -18 31 3 5 10 2 15 -7 6 -10 7 -20 3 -24z m106 -178 c24 -51 48 -94 55
-94 6 0 14 -19 17 -43 3 -24 9 -51 13 -61 6 -16 4 -17 -14 -7 -11 6 -24 21
-28 33 -4 13 -31 73 -60 134 -30 61 -54 118 -54 127 0 38 30 0 71 -89z m4544
95 c7 -11 -44 -64 -52 -55 -3 3 0 19 7 36 12 30 33 39 45 19z m-4419 -327 c12
-7 7 -72 -5 -72 -8 0 -31 50 -31 67 0 14 19 17 36 5z m4134 -61 c0 -11 -4 -22
-9 -25 -11 -7 -23 22 -15 35 9 16 24 10 24 -10z m-4070 -91 c0 -16 -4 -30 -9
-30 -12 0 -24 37 -16 50 12 20 25 10 25 -20z m3990 -100 c0 -11 -4 -20 -10
-20 -5 0 -10 9 -10 20 0 11 5 20 10 20 6 0 10 -9 10 -20z m-3820 -160 c0 -16
0 -33 0 -37 0 -5 -10 -9 -24 -11 -33 -4 -45 31 -20 59 26 28 44 24 44 -11z
m-190 -19 c-1 -13 -3 -13 -15 3 -19 26 -19 42 0 26 8 -7 15 -20 15 -29z m220
-116 c-7 -9 -15 -13 -17 -11 -7 7 7 26 19 26 6 0 6 -6 -2 -15z m140 -220 c13
-16 6 -35 -15 -35 -18 0 -28 17 -21 35 7 19 20 19 36 0z m82 -130 c10 -13 10
-55 1 -55 -17 0 -53 46 -53 67 0 21 2 22 23 11 12 -7 25 -17 29 -23z m-192
-22 c0 -19 -3 -24 -10 -17 -6 6 -8 18 -4 27 9 24 14 21 14 -10z m3496 -101
c-12 -11 -18 7 -10 30 8 23 8 23 12 0 2 -13 1 -26 -2 -30z m-3220 -36 c3 -14
4 -33 2 -43 -3 -14 -7 -12 -21 14 -21 39 -21 53 -2 53 8 0 17 -11 21 -24z
m3118 -61 c16 -24 14 -45 -3 -45 -5 0 -11 8 -14 18 -2 9 -8 25 -12 35 -11 26
10 20 29 -8z m-3066 -28 c5 -25 -7 -53 -17 -41 -5 5 -11 22 -15 37 -6 24 -4
28 11 25 10 -2 19 -11 21 -21z m70 -147 c-9 -33 -13 -38 -24 -29 -19 15 -18
44 2 63 24 25 33 10 22 -34z m2826 -368 c-41 -107 -43 -112 -54 -112 -12 0
-13 27 -1 34 11 7 41 98 41 126 0 12 5 31 11 43 12 21 12 21 20 -2 7 -16 2
-42 -17 -89z m16 -121 c0 -6 -4 -13 -10 -16 -5 -3 -10 1 -10 9 0 9 5 16 10 16
6 0 10 -4 10 -9z m-38 -113 c-7 -7 -12 -8 -12 -2 0 6 3 14 7 17 3 4 9 5 12 2
2 -3 -1 -11 -7 -17z m-16 -65 c-11 -11 -19 6 -11 24 8 17 8 17 12 0 3 -10 2
-21 -1 -24z m-96 -51 c0 -22 -14 -77 -31 -123 -80 -218 -108 -316 -106 -381 1
-60 -1 -66 -46 -132 -26 -37 -47 -76 -47 -85 0 -9 -9 -52 -20 -96 -12 -44 -29
-125 -40 -180 -10 -56 -25 -119 -33 -140 -8 -22 -20 -60 -27 -83 -18 -67 -22
-44 -10 59 10 87 19 134 55 264 8 28 17 68 21 90 4 22 13 49 20 60 7 11 16 45
20 75 4 30 11 66 17 80 10 27 20 63 42 150 14 57 34 120 65 205 10 28 21 64
24 80 6 37 78 195 88 195 5 0 8 -17 8 -38z m-1965 -641 c3 -5 1 -12 -5 -16 -5
-3 -10 1 -10 9 0 18 6 21 15 7z m61 -158 c-10 -10 -19 5 -10 18 6 11 8 11 12
0 2 -7 1 -15 -2 -18z m1449 -725 c-11 -36 -25 -45 -25 -17 0 27 7 39 22 39 5
0 6 -10 3 -22z m-25 -68 c0 -5 -5 -10 -11 -10 -5 0 -7 5 -4 10 3 6 8 10 11 10
2 0 4 -4 4 -10z m-670 -511 c0 -6 -4 -7 -10 -4 -5 3 -10 11 -10 16 0 6 5 7 10
4 6 -3 10 -11 10 -16z m140 -220 c0 -5 10 -23 22 -39 12 -16 19 -32 17 -35 -6
-6 -59 72 -59 86 0 6 5 7 10 4 6 -3 10 -11 10 -16z m214 -264 c4 -14 3 -33 -2
-41 -7 -13 -13 -10 -35 16 -34 40 -34 50 2 50 23 0 30 -6 35 -25z"/>
<path d="M3701 14974 c0 -11 3 -14 6 -6 3 7 2 16 -1 19 -3 4 -6 -2 -5 -13z"/>
<path d="M3826 14825 c4 -8 11 -15 16 -15 6 0 5 6 -2 15 -7 8 -14 15 -16 15
-2 0 -1 -7 2 -15z"/>
<path d="M4006 14581 c-4 -6 2 -23 13 -37 18 -23 21 -24 21 -7 0 27 -25 59
-34 44z"/>
<path d="M4056 14455 c4 -8 12 -15 20 -15 19 0 18 16 -2 24 -22 9 -24 8 -18
-9z"/>
<path d="M4130 14379 c7 -11 14 -19 16 -16 7 7 -7 37 -17 37 -6 0 -5 -9 1 -21z"/>
<path d="M4176 14307 c3 -10 9 -15 12 -12 3 3 0 11 -7 18 -10 9 -11 8 -5 -6z"/>
<path d="M4210 14270 c0 -5 5 -10 11 -10 5 0 7 5 4 10 -3 6 -8 10 -11 10 -2 0
-4 -4 -4 -10z"/>
<path d="M2185 13990 c-3 -5 -1 -10 4 -10 6 0 11 5 11 10 0 6 -2 10 -4 10 -3
0 -8 -4 -11 -10z"/>
<path d="M2141 13891 c-6 -10 -7 -21 -4 -25 3 -3 1 -6 -5 -6 -7 0 -12 -8 -12
-17 0 -14 6 -11 25 12 25 31 32 55 15 55 -5 0 -14 -8 -19 -19z"/>
<path d="M2070 13805 c-10 -12 -9 -15 8 -15 11 0 25 7 32 15 10 12 9 15 -8 15
-11 0 -25 -7 -32 -15z"/>
<path d="M2045 13770 c-8 -13 -1 -24 14 -19 6 3 7 10 2 18 -6 10 -10 10 -16 1z"/>
<path d="M2960 10964 c0 -8 5 -12 10 -9 6 3 10 10 10 16 0 5 -4 9 -10 9 -5 0
-10 -7 -10 -16z"/>
<path d="M2897 10873 c-13 -12 -7 -33 8 -33 8 0 15 9 15 20 0 20 -11 26 -23
13z"/>
<path d="M2846 10741 c-4 -7 -5 -15 -2 -18 9 -9 19 4 14 18 -4 11 -6 11 -12 0z"/>
<path d="M2782 10629 c-7 -12 -11 -23 -8 -26 8 -9 36 17 36 33 0 20 -13 17
-28 -7z"/>
<path d="M2706 10523 c-8 -16 -24 -36 -35 -45 -12 -10 -21 -27 -21 -38 0 -12
-13 -38 -30 -58 -16 -21 -33 -53 -36 -72 -7 -35 -7 -35 33 15 22 28 48 70 57
95 10 25 29 59 42 77 13 17 24 36 24 42 0 21 -20 11 -34 -16z"/>
<path d="M4170 9395 c0 -15 55 -108 67 -112 7 -3 13 -18 13 -33 0 -15 6 -33
14 -39 8 -7 17 -23 20 -36 7 -28 36 -34 36 -8 0 22 -97 205 -118 221 -16 12
-32 16 -32 7z"/>
<path d="M4786 8171 c-3 -5 3 -20 14 -33 10 -14 22 -37 25 -51 4 -15 11 -30
16 -33 5 -3 6 -16 3 -30 -5 -20 -3 -23 12 -18 11 4 25 12 32 17 19 15 28 -1
14 -23 -20 -32 -15 -98 7 -110 11 -5 22 -10 26 -10 7 0 -5 53 -16 65 -15 15
-10 35 9 35 9 0 22 -8 27 -18 25 -45 51 -82 58 -82 4 0 7 10 7 23 0 22 -43 77
-60 77 -5 0 -16 15 -24 33 -7 19 -27 49 -43 68 -16 19 -39 49 -52 67 -22 31
-44 41 -55 23z"/>
<path d="M4970 7810 c0 -11 7 -20 15 -20 8 0 15 9 15 20 0 11 -7 20 -15 20 -8
0 -15 -9 -15 -20z"/>
<path d="M1954 3324 c4 -15 20 -44 35 -63 44 -58 61 -89 61 -111 0 -13 7 -20
20 -20 24 0 27 32 5 50 -8 7 -15 25 -15 40 0 22 -5 29 -28 33 -24 5 -30 13
-38 49 -6 30 -15 44 -28 46 -16 3 -18 0 -12 -24z"/>
<path d="M2100 3103 c0 -15 9 -39 19 -52 18 -23 18 -23 17 25 -1 38 -5 49 -18
52 -14 3 -18 -3 -18 -25z"/>
<path d="M2135 3011 c-3 -6 4 -15 16 -21 11 -7 18 -14 15 -17 -3 -4 -1 -12 5
-20 9 -10 15 -10 25 -2 24 20 16 46 -17 58 -39 13 -36 13 -44 2z"/>
<path d="M3240 15971 c0 -12 6 -21 15 -21 8 0 15 4 15 9 0 5 -7 14 -15 21 -13
10 -15 9 -15 -9z"/>
<path d="M4707 13832 c-20 -22 -22 -52 -4 -52 19 0 60 47 52 59 -10 16 -30 13
-48 -7z"/>
<path d="M2380 12456 c0 -27 31 -86 45 -86 21 0 19 23 -7 64 -24 37 -38 45
-38 22z"/>
<path d="M2450 12323 c1 -18 33 -63 45 -63 9 0 -4 51 -17 67 -15 18 -28 16
-28 -4z"/>
<path d="M2510 12226 c0 -15 40 -49 48 -41 7 7 -27 55 -38 55 -6 0 -10 -6 -10
-14z"/>
<path d="M3386 11593 c-12 -12 -6 -43 9 -43 8 0 15 9 15 19 0 21 -13 34 -24
24z"/>
<path d="M3452 11464 c2 -11 11 -20 22 -22 13 -3 17 1 14 14 -2 11 -11 20 -22
22 -13 3 -17 -1 -14 -14z"/>
<path d="M1820 3015 c0 -8 7 -15 15 -15 8 0 15 7 15 15 0 8 -7 15 -15 15 -8 0
-15 -7 -15 -15z"/>
</g>
</svg>
